<mxfile host="app.diagrams.net" modified="2023-10-14T06:31:37.690Z" agent="Mozilla/5.0 (Macintosh; Intel Mac OS X 10.15; rv:109.0) Gecko/20100101 Firefox/118.0" etag="rjXQh8JB-l1GM97y-ihq" version="22.0.4" type="device">
  <diagram name="Page-1" id="cuhOUXPBMeoGYiiYB1LV">
    <mxGraphModel dx="954" dy="1689" grid="1" gridSize="10" guides="1" tooltips="1" connect="1" arrows="1" fold="1" page="1" pageScale="1" pageWidth="850" pageHeight="1100" math="0" shadow="0">
      <root>
        <mxCell id="0" />
        <mxCell id="1" parent="0" />
        <mxCell id="k2aICVtMUsSwU0WbcI1Y-9" style="edgeStyle=orthogonalEdgeStyle;rounded=0;orthogonalLoop=1;jettySize=auto;html=1;exitX=1;exitY=0.25;exitDx=0;exitDy=0;entryX=0;entryY=0.25;entryDx=0;entryDy=0;fillColor=#a20025;strokeColor=#6F0000;strokeWidth=2;" edge="1" parent="1" source="k2aICVtMUsSwU0WbcI1Y-3" target="k2aICVtMUsSwU0WbcI1Y-4">
          <mxGeometry relative="1" as="geometry" />
        </mxCell>
        <mxCell id="k2aICVtMUsSwU0WbcI1Y-3" value="Home Page UI" style="rounded=0;whiteSpace=wrap;html=1;fillColor=#f8cecc;strokeColor=#b85450;" vertex="1" parent="1">
          <mxGeometry x="80" y="40" width="120" height="200" as="geometry" />
        </mxCell>
        <mxCell id="k2aICVtMUsSwU0WbcI1Y-10" style="edgeStyle=orthogonalEdgeStyle;rounded=0;orthogonalLoop=1;jettySize=auto;html=1;exitX=0;exitY=0.75;exitDx=0;exitDy=0;entryX=1;entryY=0.75;entryDx=0;entryDy=0;strokeWidth=2;fillColor=#e3c800;strokeColor=#B09500;" edge="1" parent="1" source="k2aICVtMUsSwU0WbcI1Y-4" target="k2aICVtMUsSwU0WbcI1Y-3">
          <mxGeometry relative="1" as="geometry" />
        </mxCell>
        <mxCell id="k2aICVtMUsSwU0WbcI1Y-4" value="Home Page Logic" style="rounded=0;whiteSpace=wrap;html=1;fillColor=#fff2cc;strokeColor=#d6b656;" vertex="1" parent="1">
          <mxGeometry x="240" y="40" width="120" height="200" as="geometry" />
        </mxCell>
        <mxCell id="k2aICVtMUsSwU0WbcI1Y-5" value="&lt;div&gt;Storage Service&lt;/div&gt;&lt;div&gt;Interface&lt;br&gt;&lt;/div&gt;" style="rounded=1;whiteSpace=wrap;html=1;fillColor=#008a00;fontColor=#ffffff;strokeColor=#005700;" vertex="1" parent="1">
          <mxGeometry x="560" y="160" width="120" height="80" as="geometry" />
        </mxCell>
        <mxCell id="k2aICVtMUsSwU0WbcI1Y-6" value="&lt;div&gt;Web API&lt;br&gt;&lt;/div&gt;&lt;div&gt;Interface&lt;br&gt;&lt;/div&gt;" style="rounded=1;whiteSpace=wrap;html=1;fillColor=#008a00;fontColor=#ffffff;strokeColor=#005700;" vertex="1" parent="1">
          <mxGeometry x="560" y="40" width="120" height="80" as="geometry" />
        </mxCell>
        <mxCell id="k2aICVtMUsSwU0WbcI1Y-7" value="&lt;div&gt;Storage Service&lt;/div&gt;&lt;div&gt;Implementation&lt;br&gt;&lt;/div&gt;" style="rounded=1;whiteSpace=wrap;html=1;fillColor=#60a917;fontColor=#ffffff;strokeColor=#2D7600;" vertex="1" parent="1">
          <mxGeometry x="720" y="160" width="120" height="80" as="geometry" />
        </mxCell>
        <mxCell id="k2aICVtMUsSwU0WbcI1Y-8" value="&lt;div&gt;Web API&lt;br&gt;&lt;/div&gt;&lt;div&gt;Implementation&lt;br&gt;&lt;/div&gt;" style="rounded=1;whiteSpace=wrap;html=1;fillColor=#60a917;fontColor=#ffffff;strokeColor=#2D7600;" vertex="1" parent="1">
          <mxGeometry x="720" y="40" width="120" height="80" as="geometry" />
        </mxCell>
        <mxCell id="k2aICVtMUsSwU0WbcI1Y-17" value="" style="endArrow=none;html=1;rounded=0;strokeWidth=2;endFill=0;" edge="1" parent="1">
          <mxGeometry width="50" height="50" relative="1" as="geometry">
            <mxPoint x="520" y="199.5" as="sourcePoint" />
            <mxPoint x="560" y="200" as="targetPoint" />
          </mxGeometry>
        </mxCell>
        <mxCell id="k2aICVtMUsSwU0WbcI1Y-18" value="" style="endArrow=none;html=1;rounded=0;strokeWidth=2;endFill=0;" edge="1" parent="1">
          <mxGeometry width="50" height="50" relative="1" as="geometry">
            <mxPoint x="520" y="79.5" as="sourcePoint" />
            <mxPoint x="560" y="80" as="targetPoint" />
          </mxGeometry>
        </mxCell>
        <mxCell id="k2aICVtMUsSwU0WbcI1Y-19" value="" style="endArrow=none;html=1;rounded=0;strokeWidth=2;endFill=0;" edge="1" parent="1">
          <mxGeometry width="50" height="50" relative="1" as="geometry">
            <mxPoint x="680" y="199.5" as="sourcePoint" />
            <mxPoint x="720" y="200" as="targetPoint" />
          </mxGeometry>
        </mxCell>
        <mxCell id="k2aICVtMUsSwU0WbcI1Y-20" value="" style="endArrow=none;html=1;rounded=0;strokeWidth=2;endFill=0;" edge="1" parent="1">
          <mxGeometry width="50" height="50" relative="1" as="geometry">
            <mxPoint x="680" y="79.5" as="sourcePoint" />
            <mxPoint x="720" y="80" as="targetPoint" />
          </mxGeometry>
        </mxCell>
        <mxCell id="k2aICVtMUsSwU0WbcI1Y-21" value="&lt;font style=&quot;font-size: 20px;&quot;&gt;UI Layer&lt;/font&gt;" style="text;html=1;strokeColor=none;fillColor=none;align=center;verticalAlign=middle;whiteSpace=wrap;rounded=0;" vertex="1" parent="1">
          <mxGeometry x="80" y="-30" width="120" height="60" as="geometry" />
        </mxCell>
        <mxCell id="k2aICVtMUsSwU0WbcI1Y-22" value="&lt;font style=&quot;font-size: 20px;&quot;&gt;State Management Layer&lt;/font&gt;" style="text;html=1;strokeColor=none;fillColor=none;align=center;verticalAlign=middle;whiteSpace=wrap;rounded=0;" vertex="1" parent="1">
          <mxGeometry x="240" y="-30" width="120" height="60" as="geometry" />
        </mxCell>
        <mxCell id="k2aICVtMUsSwU0WbcI1Y-23" value="&lt;font style=&quot;font-size: 20px;&quot;&gt;Service Layer&lt;br&gt;&lt;/font&gt;" style="text;html=1;strokeColor=none;fillColor=none;align=center;verticalAlign=middle;whiteSpace=wrap;rounded=0;" vertex="1" parent="1">
          <mxGeometry x="550" y="-30" width="140" height="60" as="geometry" />
        </mxCell>
        <mxCell id="k2aICVtMUsSwU0WbcI1Y-25" value="&lt;div&gt;Data Repository&lt;br&gt;&lt;/div&gt;" style="rounded=1;whiteSpace=wrap;html=1;fillColor=#008a00;fontColor=#ffffff;strokeColor=#005700;" vertex="1" parent="1">
          <mxGeometry x="400" y="40" width="120" height="200" as="geometry" />
        </mxCell>
        <mxCell id="k2aICVtMUsSwU0WbcI1Y-26" value="" style="endArrow=none;html=1;rounded=0;strokeWidth=2;endFill=0;" edge="1" parent="1">
          <mxGeometry width="50" height="50" relative="1" as="geometry">
            <mxPoint x="360" y="139.5" as="sourcePoint" />
            <mxPoint x="400" y="140" as="targetPoint" />
          </mxGeometry>
        </mxCell>
      </root>
    </mxGraphModel>
  </diagram>
</mxfile>
